<svg xmlns="http://www.w3.org/2000/svg" viewBox="0 0 256 256" role="img" aria-label="Karton">
  <defs>
    <linearGradient id="bin" x1="0" y1="70" x2="0" y2="230"><stop stop-color="#36a9ff"/><stop offset="1" stop-color="#0871d9"/></linearGradient>
    <filter id="shadow" x="-20%" y="-20%" width="140%" height="150%"><feDropShadow dx="0" dy="9" stdDeviation="7" flood-color="#0f172a" flood-opacity=".2"/></filter>
    <style>
      .fall-a{animation:fallA 2.6s ease-in-out infinite}.fall-b{animation:fallB 2.6s ease-in-out infinite .28s}.fall-c{animation:fallC 2.6s ease-in-out infinite .56s}
      @keyframes fallA{0%{transform:translate(0,-34px) rotate(-7deg);opacity:0}18%,70%{opacity:1}78%,100%{transform:translate(0,14px) rotate(2deg);opacity:0}}
      @keyframes fallB{0%{transform:translate(0,-40px) rotate(8deg);opacity:0}18%,70%{opacity:1}78%,100%{transform:translate(0,18px) rotate(-3deg);opacity:0}}
      @keyframes fallC{0%{transform:translate(0,-30px) rotate(3deg);opacity:0}18%,70%{opacity:1}78%,100%{transform:translate(0,12px) rotate(6deg);opacity:0}}
    </style>
  </defs>
  <ellipse cx="128" cy="232" rx="71" ry="13" fill="#0f172a" opacity=".14"/>
  <g class="fall-a" transform-origin="92 76"><path d="M72 34h38l9 38H80Z" fill="#d59343" stroke="#86531d" stroke-width="3" stroke-linejoin="round"/><path d="M91 36l7 34" stroke="#9b6428" stroke-width="3"/></g>
  <g class="fall-b" transform-origin="138 66"><path d="M122 25h46l7 44h-49Z" fill="#e0a45b" stroke="#86531d" stroke-width="3" stroke-linejoin="round"/><path d="M145 28v39" stroke="#9b6428" stroke-width="3"/></g>
  <g class="fall-c" transform-origin="171 82"><path d="M158 48h40l-6 33h-38Z" fill="#c77c31" stroke="#86531d" stroke-width="3" stroke-linejoin="round"/><path d="M176 50l-4 29" stroke="#9b6428" stroke-width="3"/></g>
  <g filter="url(#shadow)">
    <path d="M59 83h138l-14 131c-1 12-11 21-23 21H96c-12 0-22-9-23-21L59 83Z" fill="url(#bin)"/>
    <rect x="45" y="70" width="166" height="28" rx="14" fill="#1593ef"/>
    <path d="M76 103h104l-9 107c-.5 7-6 12-13 12H98c-7 0-12.5-5-13-12Z" fill="#075fb6" opacity=".25"/>
    <circle cx="84" cy="231" r="13" fill="#1f2937"/><circle cx="172" cy="231" r="13" fill="#1f2937"/>
  </g>
  <g fill="none" stroke="#fff" stroke-width="9" stroke-linecap="round" stroke-linejoin="round" opacity=".96">
    <path d="M103 155h50"/>
    <path d="M153 155l-17-17"/>
    <path d="M153 155l-17 17"/>
    <path d="M103 134v42"/>
    <path d="M103 134h31v42h-31"/>
  </g>
</svg>
