<svg xmlns="http://www.w3.org/2000/svg" viewBox="0 0 256 256" role="img" aria-label="Kompost">
  <defs><linearGradient id="bg" x1="0" y1="0" x2="1" y2="1"><stop stop-color="#f0fff4"/><stop offset="1" stop-color="#fffaf0"/></linearGradient><linearGradient id="bin" x1="0" y1="32" x2="0" y2="230"><stop stop-color="#47b864"/><stop offset="1" stop-color="#176b35"/></linearGradient><filter id="s" x="-20%" y="-20%" width="140%" height="150%"><feDropShadow dx="0" dy="9" stdDeviation="7" flood-color="#064e3b" flood-opacity=".18"/></filter></defs>
  <rect width="256" height="256" rx="34" fill="url(#bg)"/>
  <g filter="url(#s)">
    <path d="M58 84h140l-14 132c-1.3 12-11 20-23 20H95c-12 0-21.7-8-23-20L58 84Z" fill="url(#bin)"/>
    <rect x="45" y="70" width="166" height="29" rx="14" fill="#2f9d50"/>
    <circle cx="83" cy="231" r="13" fill="#1f2937"/><circle cx="173" cy="231" r="13" fill="#1f2937"/>
  </g>
  <g filter="url(#s)">
    <ellipse cx="89" cy="58" rx="14" ry="28" fill="#7ac943" transform="rotate(-35 89 58)"/>
    <ellipse cx="139" cy="50" rx="16" ry="31" fill="#65b83c" transform="rotate(25 139 50)"/>
    <path d="M74 75c21-6 41 2 51 22-29 6-47-2-51-22Z" fill="#8bcf4a"/>
    <path d="M151 87c11-19 31-25 52-17-10 22-29 28-52 17Z" fill="#6fbf45"/>
    <path d="M107 83c-1-20 10-36 29-43 6 25-5 40-29 43Z" fill="#3fa34d"/>
    <path d="M93 66l-22 17M135 54l-4 28M171 78l27-8" stroke="#2f6b2f" stroke-width="4" stroke-linecap="round" opacity=".55"/>
    <path d="M108 88c11 10 28 10 40-1" stroke="#8b5e34" stroke-width="8" stroke-linecap="round"/>
    <path d="M156 83c12 4 20 12 25 24" stroke="#7c4a22" stroke-width="7" stroke-linecap="round"/>
  </g>
  <path d="M112 150h25l-9-13 8-6 22 31-22 31-8-6 9-13H96v-24h16Zm36 21h25l-9 13 8 6 22-31-22-31-8 6 9 13h-25v24Z" fill="white" opacity=".92"/>
</svg>
