<svg xmlns="http://www.w3.org/2000/svg" viewBox="0 0 256 256" role="img" aria-label="Karton">
  <defs>
    <linearGradient id="bg" x1="0" y1="0" x2="1" y2="1"><stop stop-color="#eef7ff"/><stop offset="1" stop-color="#fff7e8"/></linearGradient>
    <linearGradient id="bin" x1="0" y1="28" x2="0" y2="224"><stop stop-color="#38a8ff"/><stop offset="1" stop-color="#0867c9"/></linearGradient>
    <filter id="s" x="-20%" y="-20%" width="140%" height="150%"><feDropShadow dx="0" dy="9" stdDeviation="7" flood-color="#0f172a" flood-opacity=".18"/></filter>
  </defs>
  <rect width="256" height="256" rx="34" fill="url(#bg)"/>
  <g filter="url(#s)">
    <path d="M61 83h134l-13 132c-1 12-11 21-23 21H97c-12 0-22-9-23-21L61 83Z" fill="url(#bin)"/>
    <rect x="48" y="70" width="160" height="28" rx="13" fill="#1593ef"/>
    <path d="M75 101h106l-9 109c-.5 7-6 12-13 12H97c-7 0-12.5-5-13-12L75 101Z" fill="#0b75d1" opacity=".38"/>
    <circle cx="83" cy="231" r="13" fill="#1f2937"/><circle cx="173" cy="231" r="13" fill="#1f2937"/>
  </g>
  <g stroke="#8a561e" stroke-width="3" stroke-linejoin="round" filter="url(#s)">
    <path d="M77 41h38l11 43H85Z" fill="#c98b45"/>
    <path d="M112 34h49l8 48h-52Z" fill="#d79a50"/>
    <path d="M143 52h43l-5 35h-39Z" fill="#c17a34"/>
    <path d="M89 63h35l-4 27H82Z" fill="#e1aa63"/>
    <path d="M134 35v47M100 44l9 39M161 53l-4 32" fill="none" opacity=".55"/>
  </g>
  <path d="M116 145h24l-9-13 8-5 21 31-21 31-8-6 9-13h-41v-25h17Zm34 22h24l-9 13 8 6 21-31-21-31-8 5 9 13h-24v25Z" fill="white" opacity=".92"/>
</svg>
