<svg xmlns="http://www.w3.org/2000/svg" viewBox="0 0 256 256" role="img" aria-label="Kehricht">
  <defs><linearGradient id="bin" x1="0" y1="70" x2="0" y2="230"><stop stop-color="#687386"/><stop offset="1" stop-color="#263241"/></linearGradient><filter id="shadow" x="-20%" y="-20%" width="140%" height="150%"><feDropShadow dx="0" dy="9" stdDeviation="7" flood-color="#0f172a" flood-opacity=".22"/></filter><style>.bag-a{animation:bagA 2.8s ease-in-out infinite}.bag-b{animation:bagB 2.8s ease-in-out infinite .42s}.scrap{animation:scrap 2.8s ease-in-out infinite .72s}@keyframes bagA{0%{transform:translate(-8px,-42px) rotate(-11deg);opacity:0}20%,72%{opacity:1}82%,100%{transform:translate(7px,18px) rotate(5deg);opacity:0}}@keyframes bagB{0%{transform:translate(9px,-38px) rotate(12deg);opacity:0}20%,72%{opacity:1}82%,100%{transform:translate(-5px,16px) rotate(-5deg);opacity:0}}@keyframes scrap{0%{transform:translate(0,-30px) rotate(9deg);opacity:0}20%,72%{opacity:1}82%,100%{transform:translate(0,13px) rotate(-3deg);opacity:0}}</style></defs>
  <ellipse cx="128" cy="232" rx="71" ry="13" fill="#0f172a" opacity=".16"/><g class="bag-a"><path d="M72 82c-6-31 9-50 32-46 20 4 28 28 20 58Z" fill="#111827"/><path d="M88 42c8 9 19 10 30 1" stroke="#374151" stroke-width="5" fill="none" stroke-linecap="round"/></g><g class="bag-b"><path d="M137 77c-4-32 16-51 40-42 20 7 24 31 11 59Z" fill="#1f2937"/><path d="M156 38c10 10 21 11 32 1" stroke="#374151" stroke-width="5" fill="none" stroke-linecap="round"/></g><g class="scrap"><path d="M108 79l41 6-4 26-42-6Z" fill="#f3eadf"/><path d="M151 81l24-8 10 22-26 9Z" fill="#c99a5f"/></g>
  <g filter="url(#shadow)"><path d="M59 83h138l-14 131c-1 12-11 21-23 21H96c-12 0-22-9-23-21L59 83Z" fill="url(#bin)"/><rect x="45" y="70" width="166" height="28" rx="14" fill="#4b5563"/><circle cx="84" cy="231" r="13" fill="#111827"/><circle cx="172" cy="231" r="13" fill="#111827"/></g>
  <g fill="none" stroke="#fff" stroke-width="8" stroke-linecap="round" stroke-linejoin="round" opacity=".96"><path d="M101 174h54c6 0 11-5 10-11l-5-38h-64l-5 38c-1 6 4 11 10 11Z"/><path d="M111 125c4-15 30-15 34 0"/><path d="M108 189h40M113 142h30"/></g>
</svg>
