<svg xmlns="http://www.w3.org/2000/svg" viewBox="0 0 256 256" role="img" aria-label="Kehricht">
  <defs><linearGradient id="bg" x1="0" y1="0" x2="1" y2="1"><stop stop-color="#f8fafc"/><stop offset="1" stop-color="#eef2f7"/></linearGradient><linearGradient id="bin" x1="0" y1="32" x2="0" y2="230"><stop stop-color="#687386"/><stop offset="1" stop-color="#263241"/></linearGradient><filter id="s" x="-20%" y="-20%" width="140%" height="150%"><feDropShadow dx="0" dy="9" stdDeviation="7" flood-color="#0f172a" flood-opacity=".2"/></filter></defs>
  <rect width="256" height="256" rx="34" fill="url(#bg)"/>
  <g filter="url(#s)">
    <path d="M58 84h140l-14 132c-1.3 12-11 20-23 20H95c-12 0-21.7-8-23-20L58 84Z" fill="url(#bin)"/>
    <rect x="45" y="70" width="166" height="29" rx="14" fill="#4b5563"/>
    <circle cx="83" cy="231" r="13" fill="#111827"/><circle cx="173" cy="231" r="13" fill="#111827"/>
  </g>
  <g filter="url(#s)">
    <path d="M72 84c-6-29 8-48 31-44 20 4 28 26 21 54Z" fill="#111827"/>
    <path d="M118 75c-4-33 16-50 40-42 20 7 24 31 11 59Z" fill="#1f2937"/>
    <path d="M153 88c-2-25 13-40 34-35 17 4 25 22 18 43Z" fill="#0f172a"/>
    <path d="M87 44c9 10 19 11 31 2M137 36c10 11 22 12 33 2M170 55c8 8 18 9 28 1" stroke="#374151" stroke-width="5" fill="none" stroke-linecap="round"/>
    <rect x="99" y="80" width="39" height="23" rx="5" fill="#f3eadf" transform="rotate(8 118 91)"/>
    <path d="M154 83l22-8 9 20-24 8Z" fill="#c99a5f"/>
  </g>
  <path d="M112 150h25l-9-13 8-6 22 31-22 31-8-6 9-13H96v-24h16Zm36 21h25l-9 13 8 6 22-31-22-31-8 6 9 13h-25v24Z" fill="white" opacity=".9"/>
</svg>
