<svg xmlns="http://www.w3.org/2000/svg" viewBox="0 0 256 256" role="img" aria-label="Papier">
  <defs><linearGradient id="bg" x1="0" y1="0" x2="1" y2="1"><stop stop-color="#eef8ff"/><stop offset="1" stop-color="#f7fbff"/></linearGradient><linearGradient id="bin" x1="0" y1="30" x2="0" y2="226"><stop stop-color="#60c8ff"/><stop offset="1" stop-color="#1d7fe0"/></linearGradient><filter id="s" x="-20%" y="-20%" width="140%" height="150%"><feDropShadow dx="0" dy="9" stdDeviation="7" flood-color="#0f172a" flood-opacity=".16"/></filter></defs>
  <rect width="256" height="256" rx="34" fill="url(#bg)"/>
  <g filter="url(#s)">
    <path d="M58 84h140l-14 132c-1.3 12-11 20-23 20H95c-12 0-21.7-8-23-20L58 84Z" fill="url(#bin)"/>
    <rect x="45" y="70" width="166" height="29" rx="14" fill="#3aa7f2"/>
    <circle cx="83" cy="231" r="13" fill="#1f2937"/><circle cx="173" cy="231" r="13" fill="#1f2937"/>
  </g>
  <g filter="url(#s)">
    <rect x="66" y="46" width="57" height="62" rx="5" fill="#ffffff" transform="rotate(-8 94 77)"/>
    <rect x="113" y="34" width="64" height="76" rx="5" fill="#f8fbff" transform="rotate(7 145 72)"/>
    <rect x="95" y="63" width="72" height="48" rx="5" fill="#e8f0ff"/>
    <path d="M79 63h35M77 78h39M76 93h33M125 55h38M123 72h43M121 89h36" stroke="#9bb6d8" stroke-width="4" stroke-linecap="round"/>
    <path d="M76 45c13 12 27 12 43 1" stroke="#7c8796" stroke-width="5" fill="none" opacity=".65"/>
  </g>
  <path d="M112 150h25l-9-13 8-6 22 31-22 31-8-6 9-13H96v-24h16Zm36 21h25l-9 13 8 6 22-31-22-31-8 6 9 13h-25v24Z" fill="white" opacity=".92"/>
</svg>
