<svg xmlns="http://www.w3.org/2000/svg" viewBox="0 0 256 256" role="img" aria-label="Papier">
  <defs><linearGradient id="bin" x1="0" y1="70" x2="0" y2="230"><stop stop-color="#62c8ff"/><stop offset="1" stop-color="#1b7ee4"/></linearGradient><filter id="shadow" x="-20%" y="-20%" width="140%" height="150%"><feDropShadow dx="0" dy="9" stdDeviation="7" flood-color="#0f172a" flood-opacity=".18"/></filter><style>.sheet-a{animation:sheetA 2.7s ease-in-out infinite}.sheet-b{animation:sheetB 2.7s ease-in-out infinite .35s}.sheet-c{animation:sheetC 2.7s ease-in-out infinite .7s}@keyframes sheetA{0%{transform:translate(-6px,-42px) rotate(-13deg);opacity:0}20%,72%{opacity:1}82%,100%{transform:translate(8px,18px) rotate(5deg);opacity:0}}@keyframes sheetB{0%{transform:translate(10px,-38px) rotate(14deg);opacity:0}20%,72%{opacity:1}82%,100%{transform:translate(-6px,17px) rotate(-4deg);opacity:0}}@keyframes sheetC{0%{transform:translate(0,-30px) rotate(3deg);opacity:0}20%,72%{opacity:1}82%,100%{transform:translate(0,12px) rotate(0);opacity:0}}</style></defs>
  <ellipse cx="128" cy="232" rx="71" ry="13" fill="#0f172a" opacity=".14"/><g class="sheet-a"><rect x="72" y="37" width="50" height="61" rx="5" fill="#fff" stroke="#9bb6d8" stroke-width="3"/><path d="M83 55h27M83 70h24M83 85h18" stroke="#9bb6d8" stroke-width="4" stroke-linecap="round"/></g><g class="sheet-b"><rect x="136" y="31" width="51" height="64" rx="5" fill="#f8fbff" stroke="#9bb6d8" stroke-width="3"/><path d="M147 50h26M147 65h30M147 80h22" stroke="#9bb6d8" stroke-width="4" stroke-linecap="round"/></g><g class="sheet-c"><rect x="102" y="53" width="55" height="52" rx="5" fill="#e8f0ff" stroke="#9bb6d8" stroke-width="3"/><path d="M113 70h31M113 85h25" stroke="#9bb6d8" stroke-width="4" stroke-linecap="round"/></g>
  <g filter="url(#shadow)"><path d="M59 83h138l-14 131c-1 12-11 21-23 21H96c-12 0-22-9-23-21L59 83Z" fill="url(#bin)"/><rect x="45" y="70" width="166" height="28" rx="14" fill="#38a7f2"/><circle cx="84" cy="231" r="13" fill="#1f2937"/><circle cx="172" cy="231" r="13" fill="#1f2937"/></g>
  <g fill="none" stroke="#fff" stroke-width="8" stroke-linecap="round" stroke-linejoin="round" opacity=".96"><path d="M103 128h42l17 17v49h-59Z"/><path d="M145 128v20h17"/><path d="M116 160h33M116 177h26"/></g>
</svg>
